<svg width="48" height="48" viewBox="0 0 48 48" fill="none" xmlns="http://www.w3.org/2000/svg">
  <rect width="48" height="48" rx="5" fill="#0f1e38"/>
  <rect x="1.25" y="1.25" width="45.5" height="45.5" rx="4" stroke="#8d9aad" stroke-width="1.25" opacity="0.85"/>
  <defs>
    <linearGradient id="stripe" x1="0" y1="0" x2="0" y2="48" gradientUnits="userSpaceOnUse">
      <stop offset="0%" stop-color="#b7d4f5"/>
      <stop offset="45%" stop-color="#4a90d9"/>
      <stop offset="100%" stop-color="#1e5aa8"/>
    </linearGradient>
    <linearGradient id="pfill" x1="16" y1="10" x2="36" y2="38" gradientUnits="userSpaceOnUse">
      <stop offset="0%" stop-color="#ffffff"/>
      <stop offset="100%" stop-color="#e8eef5"/>
    </linearGradient>
  </defs>
  <rect x="0" y="0" width="7" height="48" fill="url(#stripe)"/>
  <rect x="0" y="0" width="2" height="48" fill="#ffffff" opacity="0.18"/>
  <path d="M17 9.5h10.2c6.4 0 10.8 4.1 10.8 10.1 0 6-4.4 10.1-10.8 10.1H21.5V38.5H17V9.5zm4.5 6.2v7.8h5.4c2.55 0 4.35-1.7 4.35-3.9S29.45 15.7 26.9 15.7H21.5z" fill="url(#pfill)"/>
  <rect x="17" y="41.5" width="22" height="1.75" rx="0.5" fill="#6a7889" opacity="0.75"/>
</svg>
